<svg xmlns="http://www.w3.org/2000/svg" viewBox="0 0 32 32"><path fill="#8a6845" d="M12.1 20.4c-1.2-.1-2.3-.4-3.5-.7l-1.1-.3V11c0-4.1 3.4-7.5 7.5-7.5s7.5 3.4 7.5 7.5v8.5l-1.1.3c-1.2.3-2.3.5-3.5.7"/><path fill="#745539" d="M11.5 11.5V14c0 2 1 3.7 2.6 4.6v1.8H18c.7-.1 1.3-.2 2-.3v-1.5c1.5-1 2.6-2.7 2.6-4.6v-2.5H11.5z"/><path fill="#745539" d="M14.1 20.4c-1.2-.1-2.3-.4-3.5-.7l-1.1-.3V11c0-3.8 2.8-6.9 6.5-7.4-.3 0-.7-.1-1-.1-4.1 0-7.5 3.4-7.5 7.5v8.5l1.1.3c1.2.3 2.3.5 3.5.7H18l-3.9-.1z"/><path fill="#f0c9ae" d="M17.9 21.3v-3.5H12v3.6l-1.6.5c.4 2.4 4.6 4.2 4.6 4.2s4.1-1.9 4.6-4.2l-1.7-.6z"/><path fill="#e2b698" d="M17.9 17.8H12v1.8c.9.5 1.9.9 2.9.9 1.1 0 2.1-.3 2.9-.9v-1.8z"/><path fill="#607d95" d="M22.6 22.8l-3-1C19.2 24.2 15 26 15 26s-4.1-1.9-4.6-4.2l-3 1c-1.7.6-2.9 2.2-2.9 4v3.7h21v-3.7c0-1.8-1.2-3.4-2.9-4z"/><path fill="#4b6c85" d="M14.2 25.6c-.9-.5-2.4-1.4-3.2-2.6-.3-.4-.5-.8-.6-1.2l-3 1c-1.7.6-2.9 2.2-2.9 4v3.7h1.7V27c0-1.4.9-2.7 2.3-3.2.7-.2 1.4-.1 2 .4.3.3.7.5 1 .7 1 .7 2.3 1 3.5 1 0 .2-.6-.1-.8-.3zM25.5 30.5v-3.7c0-.8-.2-1.5-.6-2.2-2.5.3-4.4 2.4-4.4 5v.8h5z"/><path fill="#4b6c85" d="M4.5 30.5v-3.7c0-.8.2-1.5.6-2.2 2.5.3 4.4 2.4 4.4 5v.8h-5z"/><path fill="#40657c" d="M6.8 25.2c-.5-.3-1.1-.4-1.7-.5-.1.1-.2.3-.2.5v.1c-.1.1-.1.3-.2.5v.2c0 .1-.1.2-.1.4v4.3h1.7v-3.5c-.1-.8.1-1.5.5-2z"/><path fill="#e2b698" d="M13.7 19.6v-1.9H12v3.5l-1.6.5C10.9 24.2 15 26 15 26c.1-.1.4-.2.8-.4-.9-.5-2.4-1.4-3.2-2.6-.2-.2-.1-.6.2-.7l.3-.1c.3-.1.6-.4.6-.8v-1.8z"/><path fill="#f0c9ae" d="M10.4 21.8zM19.6 21.8z"/><path fill="#eef2fa" d="M1.5 1.5h8c.6 0 1 .4 1 1v4c0 .6-.4 1-1 1h-1v2l-3-2h-4c-.6 0-1-.4-1-1v-4c0-.6.4-1 1-1z"/><path fill="#d5e5f2" d="M3.5 6c-.6 0-1-.4-1-1V1.5h-1c-.6 0-1 .4-1 1v4c0 .6.4 1 1 1h4l3 2v-2h1c.6 0 1-.4 1-1V6h-7z"/><path fill="#eef2fa" d="M29.5 1.5h-4c-.6 0-1 .4-1 1v7c0 .6.4 1 1 1h1v2l2-2h1c.6 0 1-.4 1-1v-7c0-.6-.4-1-1-1z"/><path fill="#d5e5f2" d="M27.5 9c-.6 0-1-.4-1-1V1.5h-1c-.6 0-1 .4-1 1v7c0 .6.4 1 1 1h1v2l2-2h1c.6 0 1-.4 1-1V9h-3z"/><path fill="#eef2fa" d="M30.5 22.5h-5c-.6 0-1-.4-1-1v-4c0-.6.4-1 1-1h1v-2l3 2h1c.6 0 1 .4 1 1v4c0 .6-.4 1-1 1z"/><path fill="#d5e5f2" d="M27.5 20.5c-.6 0-1-.4-1-1v-3h-1c-.6 0-1 .4-1 1v4c0 .6.4 1 1 1h5c.6 0 1-.4 1-1v-1h-4z"/><path fill="#99b5ce" d="M29.5 19h-3c-.3 0-.5-.2-.5-.5s.2-.5.5-.5h3c.3 0 .5.2.5.5s-.2.5-.5.5zM28.5 21h-2c-.3 0-.5-.2-.5-.5s.2-.5.5-.5h2c.3 0 .5.2.5.5s-.2.5-.5.5zM8.5 4h-6c-.3 0-.5-.2-.5-.5s.2-.5.5-.5h6c.3 0 .5.2.5.5s-.2.5-.5.5zM6.5 6h-4c-.3 0-.5-.2-.5-.5s.2-.5.5-.5h4c.3 0 .5.2.5.5s-.2.5-.5.5zM27.5 7c-.3 0-.5-.2-.5-.5v-.3c0-.6.3-1 .7-1.3.2 0 .3-.2.3-.4 0-.3-.2-.5-.5-.5s-.5.2-.5.5-.2.5-.5.5-.5-.2-.5-.5c0-.8.7-1.5 1.5-1.5s1.5.7 1.5 1.5c0 .6-.3 1.1-.8 1.3-.1.1-.2.2-.2.4v.3c0 .3-.2.5-.5.5zM27.5 9c-.3 0-.5-.2-.5-.5s.2-.5.5-.5.5.2.5.5-.2.5-.5.5z"/><path fill="#f0c9ae" d="M10 14.5H8.5c-.6 0-1-.4-1-1v-1c0-.6.4-1 1-1H10v3z"/><path fill="#e2b698" d="M7.6 14h.6c.3 0 .5-.2.5-.5v-2h.7v3h-1c-.3 0-.6-.2-.8-.5z"/><path fill="#f0c9ae" d="M20 14.5h1.5c.6 0 1-.4 1-1v-1c0-.6-.4-1-1-1H20v3z"/><path fill="#e2b698" d="M22.4 14h-.6c-.3 0-.5-.2-.5-.5v-2h-.7v3h1c.3 0 .6-.2.8-.5z"/><path fill="#f0c9ae" d="M13.5 11.5c-1.1 0-2-.9-2-2 0 1.1-.9 2-2 2V14c0 3 2.5 5.5 5.5 5.5s5.5-2.5 5.5-5.5v-2.5h-7z"/><path fill="#e2b698" d="M13.5 11.5h-.4c-.1 0-.1 0-.2-.1h-.1c-.1 0-.2-.1-.3-.1-.1-.1-.2-.1-.3-.2l-.3-.3c-.1-.1-.2-.2-.2-.3v-.1c-.1-.1-.1-.2-.1-.3V10c0-.1-.1-.3-.1-.4 0 1.1-.9 2-2 2V14c0 .3 0 .6.1.9v.1c0 .3.1.5.2.8 0 0 0 .1.1.1.1.3.2.5.3.7v.1c.1.2.3.4.4.6l.1.1c.2.2.4.4.5.6l.1.1c.2.2.4.3.6.5 0 0 .1 0 .1.1.2.1.5.3.7.4.3.1.5.2.8.3h.1c-1.7-1.5-2.7-3.7-2.7-6v-1.1c.2-.3.4-.6.5-.9h.1c.2.9 1 1.6 2 1.6h7v-1.5h-7z"/></svg>