<svg xmlns="http://www.w3.org/2000/svg" width="512" height="512" data-name="Filled expand" viewBox="0 0 512 512"><path fill="#c85aed" d="M463.213,340.62,324.62,479.213a30,30,0,0,1-42.426,0L81.573,278.592a30,30,0,0,1-8.628-24.3l12.993-125.6a30,30,0,0,1,26.754-26.754l125.6-12.993a30,30,0,0,1,24.3,8.628L463.213,298.194A30,30,0,0,1,463.213,340.62Z"/><circle cx="145.015" cy="161.015" r="24" fill="#fffdfa"/><circle cx="360" cy="200" r="112" fill="#fac850"/><path d="M80.9 255.115L90.867 158.8a72.554 72.554 0 0 0 22.2.632 31.859 31.859 0 1 0 5.234-16.043l-.3-1.153a56.4 56.4 0 0 1-25.486.581l1.376-13.3a22.1 22.1 0 0 1 19.62-19.62L239.115 96.9a21.918 21.918 0 0 1 17.821 6.327l11.313-11.314a37.843 37.843 0 0 0-30.78-10.928L176 87.347A72 72 0 1 0 75.276 154.021L64.988 253.469a37.845 37.845 0 0 0 10.928 30.78l17.408 17.408 11.313-11.314L87.23 272.936A21.913 21.913 0 0 1 80.9 255.115zM133.7 149.7a16 16 0 1 1 0 22.628A15.952 15.952 0 0 1 133.7 149.7zM48 88a56 56 0 0 1 112 0q0 .5-.009 1l-48.122 4.978a38.163 38.163 0 0 0-33.888 33.888l-.952 9.2A56.046 56.046 0 0 1 48 88zM318.963 473.557a22.026 22.026 0 0 1-31.112 0L117.657 303.363l-11.314 11.313L276.537 484.87a38.043 38.043 0 0 0 53.74 0l71.213-71.213-11.313-11.314zM457.557 303.851a22.026 22.026 0 0 1 0 31.112l-55.214 55.214 11.314 11.313 55.213-55.213a38.043 38.043 0 0 0 0-53.74z"/><path d="M125.892 266.343l-8.63-8.63a11.95 11.95 0 0 1-3.451-9.72l1.569-15.17-15.915-1.646L97.9 246.346a27.883 27.883 0 0 0 8.052 22.68l8.631 8.631zM294.921 435.373l-9.029-9.03-11.314 11.314 9.03 9.03a28.031 28.031 0 0 0 39.6 0l10.451-10.452-11.314-11.313-10.451 10.451A12.014 12.014 0 0 1 294.921 435.373zM360 320a120 120 0 0 0 91.919-197.146l-12.251 10.292A104.072 104.072 0 0 1 463.691 192H448v16H463.7A104.167 104.167 0 0 1 368 303.7V288H352V303.7A104.167 104.167 0 0 1 256.305 208H272V192H256.305A104.167 104.167 0 0 1 352 96.305V112h16V96.309a104.069 104.069 0 0 1 58.854 24.023l10.292-12.251A120 120 0 1 0 360 320z"/><path d="M359.135,197.551,308.65,161.49l-9.3,13.02,56,40a8,8,0,0,0,10.307-.853l64-64-11.314-11.314Z"/></svg>