<svg id="visual" viewBox="0 0 960 540" width="960" height="540" xmlns="http://www.w3.org/2000/svg" xmlns:xlink="http://www.w3.org/1999/xlink" version="1.1"><rect x="0" y="0" width="960" height="540" fill="#002233"></rect><path d="M206 0L210.2 12.8C214.3 25.7 222.7 51.3 215.3 77C208 102.7 185 128.3 186 154C187 179.7 212 205.3 210 231.2C208 257 179 283 181.3 308.8C183.7 334.7 217.3 360.3 227.2 386C237 411.7 223 437.3 221 463C219 488.7 229 514.3 234 527.2L239 540L0 540L0 527.2C0 514.3 0 488.7 0 463C0 437.3 0 411.7 0 386C0 360.3 0 334.7 0 308.8C0 283 0 257 0 231.2C0 205.3 0 179.7 0 154C0 128.3 0 102.7 0 77C0 51.3 0 25.7 0 12.8L0 0Z" fill="#0066FF" stroke-linecap="round" stroke-linejoin="miter"></path></svg>